<svg width="1080" height="1080" viewBox="0 0 1080 1080" fill="none" xmlns="http://www.w3.org/2000/svg">
<path fill-rule="evenodd" clip-rule="evenodd" d="M252 508.25C252 538.087 263.853 566.702 284.95 587.799C306.048 608.897 334.663 620.75 364.5 620.75C388.35 620.75 410.4 613.1 427.5 600.95V609.5C427.5 639.337 439.353 667.952 460.451 689.049C481.548 710.147 510.163 721 540 721C569.837 721 598.452 710.147 619.549 689.049C640.647 667.952 652.5 639.337 652.5 609.5V600.95C669.6 613.1 691.65 620.75 715.5 620.75C745.337 620.75 773.952 608.897 795.049 587.799C816.147 566.702 828 538.087 828 508.25C828 463.25 801.45 425 763.65 407C801.45 389 828 350.3 828 305.75C828 275.913 816.147 247.298 795.049 226.2C773.952 205.103 745.337 193.25 715.5 193.25C691.65 193.25 669.6 200.45 652.5 213.05V204.5C652.5 174.663 640.647 146.048 619.549 124.95C598.452 103.853 569.837 92 540 92C510.163 92 481.548 103.853 460.451 124.95C439.353 146.048 427.5 174.663 427.5 204.5V213.05C410.4 200.45 388.35 193.25 364.5 193.25C334.663 193.25 306.048 205.103 284.95 226.2C263.853 247.298 252 275.913 252 305.75C252 350.3 278.55 389 316.35 407C278.55 425 252 463.25 252 508.25ZM619.549 327.45C598.452 306.353 569.837 294.5 540 294.5C510.163 294.5 481.548 306.353 460.451 327.45C439.353 348.548 427.5 377.163 427.5 407C427.5 436.837 439.353 465.452 460.451 486.549C481.548 507.647 510.163 519.5 540 519.5C569.837 519.5 598.452 507.647 619.549 486.549C640.647 465.452 652.5 436.837 652.5 407C652.5 377.163 640.647 348.548 619.549 327.45Z" fill="#E30026"/>
<path d="M540 988C647.413 988 750.426 945.33 826.378 869.378C902.33 793.426 945 583 945 583C945 583 540 763 540 988Z" fill="#0B7F00"/>
<path d="M135 583C135 583 177.67 793.426 253.622 869.378C329.574 945.33 432.587 988 540 988C540 763 135 583 135 583Z" fill="#6A7F00"/>
</svg>
